<?xml version="1.0" encoding="UTF-8"?>
<svg id="Layer_1" data-name="Layer 1" xmlns="http://www.w3.org/2000/svg" viewBox="0 0 51.86 51.86">
  <path d="M0,32.25c.24-.64.46-1.28.79-1.89.93-1.73,2.52-3.1,4.37-3.77l-.06-.21c-1.8-1.31-2.41-3.81-1.63-5.89.3-.8.83-1.42,1.37-2.06-.32-4.02,1.63-8.27,5.18-10.29.42-.24.81-.45,1.21-.01.77.85-.58,1.33-1.11,1.73-1.99,1.49-3.47,3.86-3.75,6.36-.04.37.08.78-.08,1.14l.13.23c1.13-.55,2.42-.47,3.59-.1-.13-2.49,1.58-4.8,3.97-5.49,1.43-.41,5.45-.43,7-.28.2.02.44.08.61.2.12.09.35.45.35.56v1.97l7.89-4.5c.04-.13-.08-.18-.17-.24-.28-.21-.75-.45-1.08-.64-1.91-1.14-4.01-2.41-5.97-3.44-.21-.11-.44-.26-.68-.28v2.07c0,.24-.38.66-.66.65-2.04.08-4.13-.09-6.17,0-.58.02-1.67.48-1.92-.29-.34-1.42,1.37-.97,2.23-1.22h5.01s0-1.46,0-1.46c0-.03.21-.48.26-.55.42-.63,1.29-.91,1.99-.58l7.96,4.58c.95.71.99,2.02,0,2.72l-7.88,4.56c-.76.32-1.45.18-1.97-.45-.07-.08-.35-.51-.35-.56v-1.57h-5.31c-.18,0-1.02.29-1.23.39-1.86.81-2.63,2.74-2.34,4.7,2.31,1.95,2.56,5.46.44,7.66-.22.22-.65.34-.66.7,1.78.65,3.32,2.08,4.2,3.74.65,1.22,1.34,3.01-.12,3.93-.12.08-.7.32-.79.32h-3.08c-.04,1.8,1.39,3.42,3.11,3.82.68.16,1.53-.06,1.82.7l-.02,5.49c-.12.35-.6.56-.94.58-.74.05-2.04-.21-2.78-.41-4.57-1.23-7.93-5.52-7.86-10.28-1.36-.16-3.58.52-4.49-.81-.16-.23-.19-.5-.36-.7v-.81ZM7.66,18.73c-2.19.3-3.57,2.77-2.86,4.83,1.05,3.02,5.28,3.32,6.74.47s-.91-5.71-3.89-5.3ZM1.64,32.94c.1.11.38.12.53.13,3.35.23,7.1,0,10.52.1.42.01,1.62.08,1.91-.11.33-.24-.05-1.06-.19-1.4-2.26-5.44-10.26-5.45-12.53,0-.12.28-.45,1.07-.23,1.29ZM6.37,34.58c-.14,4.73,3.82,8.83,8.49,9.16l.2-.11v-3.44c-.45-.27-1.02-.28-1.54-.48-2.03-.76-3.45-2.8-3.52-4.97l-.14-.17h-3.49Z"/>
  <path d="M37.05,34.58c-.16-.03-.66-.29-.81-.4-1.09-.81-.83-1.9-.37-3,.86-2.09,2.64-3.83,4.77-4.58l-.06-.21c-2.57-1.84-2.58-5.71-.36-7.85.37-2.84-1.01-4.76-3.78-5.28-.56-.11-1.07.06-1.16-.76-.17-1.62.14-3.51,0-5.16.03-.53.58-.78,1.06-.76,6.14.25,11.03,5.48,10.59,11.67.21.32.55.54.79.83,1.92,2.31,1.45,5.79-1.01,7.48,1.32.71,2.5,1.44,3.44,2.63s2.54,3.95.8,5.15c-.99.68-2.87.23-4.04.36.03,2.43-.97,5.05-2.58,6.88-.41.46-.97,1.13-1.63.71-.9-.57.54-1.75.91-2.24,1.13-1.52,1.83-3.45,1.78-5.35l-3.55-.06-.08.12c-.05,2.37-1.77,4.54-4.06,5.14-1.46.39-5.36.41-6.93.25-.31-.03-.96-.33-.96-.66v-2.17l-7.89,4.5.23.27,7.65,4.33v-2.07c0-.09.38-.57.56-.56,2.54-.14,5.35.29,7.84-.25.71-.16,1.38-.46,2.07-.67.45.02.81.4.76.86-.07.42-.36.56-.71.71-2.78,1.21-6.04.77-9,.86-.03.41.05.86,0,1.26-.14,1.05-1.35,1.71-2.31,1.21l-7.89-4.54c-.98-.73-.98-2.08.06-2.76l8.04-4.6c.71-.23,1.36.01,1.8.59.06.07.3.48.3.51v1.67h5.21s.56-.12.66-.15c1.73-.44,3.11-2.09,3.03-3.9h-3.18ZM36.7,8.19v3.49c.33.25.84.25,1.24.38,2.21.73,3.95,3.07,3.82,5.43,1.23-.25,2.44-.53,3.64,0,.19-4.79-3.91-9.18-8.69-9.3ZM43.14,18.73c-2.11.29-3.47,2.5-2.96,4.53.63,2.51,3.8,3.63,5.82,1.97,2.96-2.44.87-7.01-2.86-6.5ZM42.95,27.53c-2.4.25-4.69,1.85-5.62,4.08-.2.49-.66,1.37.13,1.46,1.59.17,3.71-.03,5.37,0,.24,0,.46.11.7.11,2.15.03,4.31-.01,6.46-.02.53-.15.13-1.02-.01-1.37-1.11-2.74-4.05-4.56-7.02-4.25Z"/>
</svg>