<?xml version="1.0" encoding="UTF-8"?>
<svg id="Layer_1" data-name="Layer 1" xmlns="http://www.w3.org/2000/svg" viewBox="0 0 54.93 54.93">
  <path d="M31.11,4.74c1-.72,2.15-2.89,3.16-3.41.21-.11.37-.16.61-.13.84.08,2.72,2.94,3.49,3.58.25,1.27-.09,2.03-1.18,2.64v.23c1.47,1.24,1.65,1.81,0,2.94-.09.44,1.21,1.26,1.21,1.44v4.98l3.1-.79,6.18-10.84c1.09-.11,4.24-1.7,5.07-1.15.15.1.3.42.36.61.22.66.93,3.74.85,4.26-.16,1.04-1.41,1.84-2.44,1.58-.2.71.74,1.85.2,2.39-.42.41-1.54.06-1.9.65.29.47.57,1.1.45,1.65-.24,1.08-2.57,4.01-2.57,4.67,0,.22.46.91.55,1.32,1.23,5.5-3.51,9.85-8.89,8.16-.34-.11-.84-.54-1.09-.54-.37,0-1.84.82-2.67.91-1.93.2-2.59-.52-3.93-.69-.37-.05-1.78.6-2.41.67-5.67.66-9.29-4.98-6.95-10.04l-6.25-10.78c-.09-.4.93-4.66,1.16-4.82.31-.22.93-.12,1.3-.05.43.08,3.63,1.13,3.82,1.29.92.79.72,1.94.25,2.9.32.56.96.26,1.46.5.97.47.07,1.74.24,2.56l1.65.3,2.54,4.51,2.63.54V4.74ZM35,3.16c-.61-.12-.66.52-.97.85-.43.46-.91.87-1.34,1.33l-.11,12.03c.69,1.67,2.53,2.63,2.45,4.72,3.04.25,3.02,4.85.08,5.13-.69.07-1.28-.49-1.81.6-.21.44.3.36.54.42,3.9.99,7.31-3.51,5.72-7.17-.58-1.33-2.63-2.46-2.81-3.27-.32-1.48.29-3.97-.08-5.26-.17-.58-1.49-.84-1.64-1.78-.08-.53,1.29-1.14,1.18-1.64l-1.18-1.69,1.69-1.98c0-.67-1.73-1.46-1.72-2.31ZM22.85,10.21c-2.72-.1-1.98-1.27-1.47-3.26-.13-.49-2.56-.94-3.15-1.12-.05,1.6-.85,2.29-.05,3.81,1.83,3.46,4.11,6.69,5.85,10.21.11.57-.4,1.01-.58,1.53-.61,1.84-.3,3.64.97,5.11,1.45,1.69,3.61,2.3,5.73,1.58,3.21-1.08,4.45-5.34,2.43-8.03-1.21-1.62-2.92-2.13-4.87-2.17l-2.9-4.88-2.33-.58c-.38-.54.14-1.65.38-2.2ZM51.77,5.83l-3.04.97-6.3,10.96-2.57.47c.3,1.27,1.53,2.21,1.49,3.61,1.89.35,2.85,2.46,1.67,4.05s-2.62.7-3.28,1.82c-.24.16.14.41.28.45,1.68.5,3.45.15,4.83-.94,2.25-1.77,2.68-4.59,1.13-6.98v-.39c.47-1.4,2.32-3.39,2.61-4.72.2-.9-.82-1.82-.35-2.76l1.84-.47c-.03-.79-.93-1.56-.13-2.2.65-.52,2.14-.32,2.3-.86.25-.84-.6-2.09-.47-3.01ZM34.76,25.52c.9-.02,1.38-1.11.61-1.7l-.61,1.7ZM41.32,25.28c.42-.16.86-.63.72-1.09l-.36-.37c-.17-.08-.46,1.2-.36,1.46Z"/>
  <path d="M34.27,39.38c.25.22,1.55-.52,1.87-.68,3.4-1.77,10.62-7.11,14.05-7.12,3,0,4.68,2.95,3.38,5.59-.46.94-1.37,1.36-2.21,1.92-5.52,3.69-11.45,6.82-17.01,10.46-1.03.49-2.71.88-3.84.75l-13.82-3.6-1.61,1.06c.78,1.33,1.84,2.58.59,4.01-.25.28-3.12,1.97-3.51,2.08-1.7.49-2.32-.21-3.13-1.51-2.71-4.38-4.86-9.16-7.63-13.51-.44-1.06-.23-2.13.66-2.85.41-.33,3-1.79,3.45-1.89,1-.23,1.78.14,2.38.94.36.49.38,1.38,1.18,1.18l8.02-4.64c3.66-1.97,6.35-.04,9.76,1.03,1.65.51,3.4.84,5,1.32,2.72.82,3.69,2.89,2.42,5.48ZM23.83,37.69c.43-.06.84-.02,1.27.05,1.54.23,5.12,1.74,6.32,1.6,1.79-.2,2.63-2.17,1.28-3.37-.72-.64-3.4-.98-4.51-1.33-3.17-.98-6.65-3.16-9.89-1.87-3.01,1.19-5.83,3.61-8.83,4.91l4.62,8.5c.32.34,1.97-1.1,2.54-1.12l12.94,3.5c1.88.23,3.43.11,5.01-.96l17.36-10.71c1.11-2.26.37-3.76-2.26-3.6s-9.29,4.88-12.1,6.38c-.61.32-1.5.84-2.11,1.05-3.54,1.23-7.78-.87-11.26-1.62l-.54-.68.15-.73ZM14.57,50.78l-.03-.79-7.96-14.16-.38-.13c-.46-.04-3.14,1.34-3.42,1.71-.23.31.39,1.28.58,1.63,2.37,4.43,5.13,8.67,7.38,13.15.72.74,2.92-1.31,3.83-1.43Z"/>
  <path d="M28.36,21.92c4.12-.93,4.42,5.35.44,5.07-1.64-.12-2.82-2.05-2.12-3.59.23-.51,1.14-1.35,1.68-1.48ZM29.85,23.63c-.48-.24-.82-.46-1.3-.06-1.25,1.03.63,2.98,1.57,1.06l-.27-1Z"/>
  <path d="M6.3,39.36c-.15.11-.99.05-1.2-.09l-.4-.74c-.03-.72,1.18-1.17,1.63-.5.4.18.09,1.24-.03,1.33Z"/>
</svg>