<?xml version="1.0" encoding="UTF-8"?>
<svg id="Layer_1" data-name="Layer 1" xmlns="http://www.w3.org/2000/svg" viewBox="0 0 49.89 51.95">
  <g id="_8rc0EI.tif" data-name="8rc0EI.tif">
    <g>
      <path d="M32.72,12.08c1.82.14,3.6.85,5.27,1.51.2.15.04.96-.11,1.2-.5,3.6,2.52,7.29,6.13,7.46.26.01,1.47-.17,1.54-.13.06.03.11.66.13.71,1.6,4.77.37,10.36-2.92,14.23-1.34,1.58-3.93,3.76-5.74,1.51-2.23-2.78,1.3-4.33,2.47-6.28,5.06-8.46-4.06-18.11-12.77-13.65-.61.31-1.33,1.07-1.81,1.34-3.01,1.71-6.11-2.22-2.85-4.86,2.8-2.26,7.14-3.28,10.64-3.02Z"/>
      <path d="M29.2,24.52c.88.14,1.95,1.17,2.15,2.03.98,4.21-.7,9.53-3.56,12.78-.89,1.01-1.99,1.78-3.02,2.64-.13.02-1.31-1.07-1.61-1.23-3-1.65-7-.73-8.88,2.14-.12.18-.47,1.2-.53,1.23-.32.17-1.22-.28-1.55-.37-5.22-1.47-10.32-6.57-10.64-12.27-.19-3.35,4.46-3.99,5.4-.75.67,2.29.9,3.81,2.77,5.57,5.66,5.32,15.66,1.94,16.35-5.83.13-1.44-.45-3.29.14-4.54.46-.97,1.97-1.55,2.97-1.38Z"/>
      <path d="M22.92.27c1.39.08,4.97.69,5.78,2.01s.4,3.31-1.01,3.98c-1.33.63-2.4.02-3.7-.23-11.16-2.14-15.93,12.71-6.68,17.83.96.53,2.15.61,2.72,1.68,1.45,2.72-1.07,4.89-3.83,3.87-3.4-1.25-7.12-5.2-8.34-8.59-.22-.6-1.19-4.44-.88-4.73.03-.03.35.03.46,0,4.24-1.53,6.07-6.57,3.21-10.32-.04-.08-.04-.18-.02-.26.02-.12,1.46-1.54,1.64-1.69C15.13,1.4,19.17.05,22.92.27Z"/>
      <path d="M6.58,4.54c5.16.71,5.91,9.58-.56,10.41-7.6.97-7.93-11.59.56-10.41Z"/>
      <path d="M20.78,41.24c5.43.67,6.14,9.51-.27,10.41-7.68,1.07-7.99-11.43.27-10.41Z"/>
      <path d="M44.79,10.32c6.75.31,6.62,11.37-1.27,10.54-5.94-.62-5.77-10.87,1.27-10.54Z"/>
    </g>
  </g>
</svg>