<?xml version="1.0" encoding="UTF-8"?>
<svg id="Layer_1" data-name="Layer 1" xmlns="http://www.w3.org/2000/svg" viewBox="0 0 437 447">
  <path d="M131.7,228.49l-84.8,2.01,24.25,14.24c5.34,13-7.87,17.02-18.47,12.4-7.43-3.24-24.18-11.85-30.22-16.67-18.33-14.64,3.63-26.45,13.95-34.94,6.11-5.03,22.46-23.84,30.47-13.2,5.77,7.66-1.97,11.69-6.72,15.93-.66.59-1.93-.06-1.27,2.28l75.16-1.95c2.54-5.31,4.35-10.99,6.79-16.37,1.26-2.77,5.42-8.25,5.71-10.37.53-3.96-10.98-13.24-13.83-16.71-4.64-5.65-9.05-12.57-13.45-18.47l-29.95-26.92,1.54,12.51c.42,12.55-14.9,12.26-17.77,1.73-1.85-6.75-5.52-24.13-6.08-30.83-.49-5.9.73-12.48.15-18.6.97-2.66,2.87-4.59,5.68-5.25,9.89-2.3,38.42-.55,48.15,2.79,6.55,2.25,10.22,8.25,6.22,14.64-6.47,10.31-20.89.5-30.38,2.54,7.84,5.37,13.95,12.7,20.94,18.97,4.41,3.96,10.25,7.12,14.51,11.43,6.31,6.38,11.65,15.78,17.42,22.49,3.47,4.04,8.72,7.24,11.46,12.42,4.37-2.88,8.14-6.54,12.57-9.35,5.88-3.73,14.16-8.51,20.17-11.76,3.71-2.01,6.81-1.58,10.54-2.93l-1.07-59.01-1.77-1.71c-2.19,13.34-20.37,16.62-18.97.49.42-4.9,12.87-36.21,15.76-41.11,3.38-5.73,10.96-8.56,17.07-5.68,5.5,2.59,22.69,24.13,23.1,29.84.68,9.53-9.2,13.76-17.02,9.48,1.18,2.69,1.81,5.5,2.03,8.44,1.09,14.84.54,34.86,0,49.97-.11,3.16-1.56,6.2-1.05,9.44,12.81.4,24.36,3.08,35.91,8.49,2.3,1.08,6.44,4.99,8.36,4.42,13.56-15.71,28.13-30.43,43.5-44.38.82-.74,1.89-1.41,3.02-1.47.27-1.59-1.39-1.06-2.47-.98-6.62.52-18.79,3.94-19.54-6.5-.83-11.65,14.14-10.73,22.01-12.95,9.83-2.77,27.9-10.92,37.15-7.23,6.1,2.44,5.08,9.6,4.62,15.07-.63,7.52-3.42,23.27-5.32,30.6-3.33,12.83-17.75,10.98-18.46.34-.2-2.97,1.31-7.03,1.68-10.15.12-1.02,1.01-2.46-.71-2.19l-52.79,53.58c-.59,2.3,5.21,8.39,6.68,10.97,5.64,9.87,8.43,20.13,12.16,30.75l63.86-3.52-13.49-6.95c-6.1-6.98-2.96-17.32,7.01-17.07,5.76.15,43.36,14.37,49.09,17.83,4.49,2.71,9.14,7.85,8.08,13.42-2.03,10.76-32.57,25.81-40.36,34.54-14.82,5.63-20.83-10.89-9.34-19.81-13.52-.46-26.93,1.75-40.37,3.02l-24.38-.93c-1.55,15.56-5.68,29.71-14.93,42.47,6.61,10.9,20.27,15.44,29.71,22.86,6.95,5.46,11.96,13.36,20.54,17.37-.12-4.5-3.61-7.48-3.59-12.48.06-10.79,13.39-15.57,20.57-7.5,2.21,2.48,5.62,10.6,6.93,14.02,3.47,9.02,11.06,30.78,12.23,39.65,3.3,24.92-21.81,16.85-36.66,12.73-9.33-2.59-22.38-4.49-18.37-17.44,1.72-5.55,8.39-4.36,12.39-6.51-3.98-5.31-10.1-7.75-14.97-11.97-3.95-3.42-7.46-8.26-11.49-11.46-5.96-4.73-13.82-7.99-19.91-13.02-2.16-1.78-11.03-11.69-12.13-11.88-14.7,10.64-30.57,19.44-49.25,19.88l1.01,65.85c6.91-5,13.07-17.32,22.49-9.03,10.1,8.88-6.96,22.75-12.36,30.65-3.91,5.73-9.65,19.76-16.07,21.83-4.55,1.46-10.73-.78-14.03-4.03-3.96-3.9-18.21-30.72-18.87-36.02-1.2-9.7,6.68-15.59,14.93-9.93l4.93,7.52-.08-67.75c-15.16-2.02-28.68-9.93-41.28-18.06-11.12,19.35-22.62,38.61-37.43,55.39,4.82.08,11.69-2.09,15.94,1.01,6.15,4.5,4.48,12.51-1.73,16.19-4.3,2.55-28.78,11.1-33.83,11.82-7.93,1.13-16.1-3.71-17.13-12.04l5.61-46.14c2.12-5.11,8.15-8.74,13.12-4.72.61.49,4.04,5.57,4.04,5.93v14.47c15.29-16.07,26.56-35.48,37.72-54.56.17-.97-7.33-13.57-8.5-16.07-1.41-3.02-6.27-13.18-6.27-15.68v-14.47ZM170.96,180.94c-15.05,14.91-26.73,43.67-18.49,64.19,19.48,48.52,89.16,53.04,115.43,8.32,17.21-29.3,2.29-80.86-33.24-88.52-23.99-5.18-45.94-1.59-63.71,16.02Z"/>
  <path d="M223.49,247.95c-1.17,8.31-8.26,15.74-16.67,10.68-8.35-5.03-3.2-16.28-4.28-24.15-12.01-.07-30.91,3.27-29.89-14.41.32-5.6,5.78-7.92,10.7-8.28,1.77-.13,3.34.84,4.72.73,4.69-.37,9.67-1.34,14.54-1.42,3.53-2.46-3.46-22.86,5.96-28.96,14.61-9.46,17.04,20.91,15.92,29.4,8.59.02,22.45-4.07,23.88,8.58,1.57,13.87-15.12,13.9-24.87,13.36-.45,4.55.62,10.07,0,14.47Z"/>
</svg>