<?xml version="1.0" encoding="UTF-8"?>
<svg id="Layer_1" data-name="Layer 1" xmlns="http://www.w3.org/2000/svg" viewBox="0 0 41.77 41.77">
  <path d="M38.75,0c.19.22.25.41.05.66-.23.28-1.43,1.09-1.81,1.36-.2.14-1.27.78-1.31.84-.16.26.63,1.44.84,1.7.59.71,1.36,1.17,2.2,1.54l2.35-3.25c.34-.22.73.02.58.42-5.3,6.3-6.23,14.69-11.37,21.12s-11.75,8.36-19.08,11.94c-2.8,1.37-5.25,3.33-7.6,5.35-.42.08-.66-.3-.38-.63l3.35-2.73c-.51-1.49-1.67-2.74-3.19-3.21l-2.74,3.37c-.24.2-.49.14-.65-.12v-.33c2.08-2.27,4.04-4.82,5.39-7.6,3.01-6.19,4.75-12.25,9.88-17.24,4.48-4.36,9.12-5.83,14.67-8.21,3.03-1.3,5.95-2.87,8.49-4.98h.33ZM35.01,3.34c-5.82,3.19-12.26,4.57-17.5,8.83-3.95,3.21-6.33,7.25-8.48,11.79-1.38,2.92-2.43,6.01-4.07,8.79-.15.26-1.14,1.62-1.04,1.76l1.7.89c2.56-3.58,4.35-7.61,6.73-11.3,3.79-5.86,8.23-10.12,14.52-13.24.5-.25,1.65-.86,2.12-.98.58-.15.72.4.27.69-7.34,3.02-12.58,8.04-16.75,14.67-2.21,3.51-3.88,7.33-6.39,10.64.23.68.93,1.21,1.05,1.98,4.28-2.89,9.29-4.37,13.81-6.82,5.26-2.85,8.91-6.43,11.71-11.74,1.53-2.9,2.5-6.04,3.85-9.01.56-1.23,1.21-2.4,1.81-3.61-.26.03-.48-.28-.7-.09-.43.46-2.71,4.02-3.01,4.08-.45.09-.54-.18-.4-.57l2.8-3.89c.07-.26-.84-.81-1.01-1.06-1.2.62-2.41,1.23-3.65,1.78-1.07.47-2.94,1.36-4,1.62-.61.15-.72-.45-.22-.72,1.11-.6,2.84-1.09,4.07-1.63,1.14-.51,2.29-1.05,3.36-1.68-.18-.4-.49-.74-.56-1.18Z"/>
  <path d="M27.33,22.08c1.02-.1-.44,1.59-.63,1.81-2.33,2.87-5.6,5.38-8.9,7.06-.26.13-1.67.84-1.82.87-.42.06-.61-.44-.26-.68,3.5-1.64,6.81-3.74,9.44-6.6.61-.66,1.24-1.67,1.83-2.24.09-.08.22-.21.34-.22Z"/>
  <path d="M25.95,8.98c.19.2.1.48-.1.63-.39.29-1.41.66-1.92.93-3.75,2.04-6.95,4.57-9.48,8.03-.46.19-.66-.18-.44-.61.41-.78,2.15-2.6,2.84-3.27,2.01-1.94,5.93-4.77,8.55-5.7.16-.06.39-.18.55-.02Z"/>
</svg>