<?xml version="1.0" encoding="UTF-8"?>
<svg id="Layer_1" data-name="Layer 1" xmlns="http://www.w3.org/2000/svg" viewBox="0 0 545.41 210.43">
  <defs>
    <style>
      .cls-1, .cls-2, .cls-3 {
        fill: #231f20;
      }

      .cls-4 {
        fill: #fff;
        stroke: #231f20;
        stroke-miterlimit: 10;
        stroke-width: 2px;
      }

      .cls-2 {
        font-family: Seravek-Bold, Seravek;
        font-size: 80px;
        font-weight: 700;
      }

      .cls-3 {
        font-family: ArialMT, Arial;
        font-size: 30px;
      }

      .cls-5 {
        letter-spacing: 0em;
      }
    </style>
  </defs>
  <g>
    <path class="cls-1" d="M39.42,144.52c2.06.84,4.13,1.67,6.19,2.51.07.02.58.2.8.74.18.45.04.85,0,.94-7.99,15.35-15.99,30.71-23.98,46.06-.98.88-2.36,1.13-3.45.61-1.38-.64-2.13-2.38-1.57-4.03,6.67-15.31,13.35-30.62,20.02-45.93.05-.11.28-.61.86-.85.52-.22.98-.09,1.11-.05Z"/>
    <path class="cls-1" d="M54.15,129.15c1.9.39,2.3-.44,2.3-.44,0,0,28.07-63.09,42.1-94.59,1.55.82,5.71,0,5.67-3.18h0s.16-9.64-.27-21.02c.06-3.22-1.61-3.84-3.73-1.64-4.81,5.43-10.27,10.28-14.69,16.01-1.37,2.23.39,4.12,2.52,5.59l-41.39,94.73c-1.27,3.55,5.48,4.13,7.48,4.54Z"/>
    <path class="cls-1" d="M110.96,84.32c2.57-4.59-1.63-11.44-7.06-10.32-2.57-.92-6.47-1.75-9.11-2.52-2.24-1.48-3.63.37-3.84,2.55,1.46,4.24,5.05,8.12,8.22,11.22,1.72,2.22,4.6,4.26,7.47,2.99,9.48,12.69,9.07,29.03-2.77,39.64-13.86,8.17-35.31,6.77-50.28,3.13-33.15-10.56-41.41-30.13-23.98-53.33,8.19-11.91,18.56-11.82,30.89-12.51,3.92-.23,8.63,1.56,7.71-1.13.22-1.53-9-1.7-9.54-1.76l-1.76.02c-10.35.84-18.71.19-27.71,6.78-64.53,47.94,38.69,109.16,81.78,67.39,15.81-20.18,14.74-31.72,0-52.16ZM92.82,74.75c-.14.1-.39.28-.54.19-.13-.07-.12-.29-.11-.65,0-.29.01-.44.11-.51.11-.07.27,0,.52.11.25.12.39.18.42.3.05.22-.27.46-.39.54ZM102.98,84.52c-1.18.1-4.48-2.96-2.36-3.83.27-.37,3.39,1.99,3.3,2.42.3.59-.21,1.49-.93,1.42Z"/>
  </g>
  <text class="cls-2" transform="translate(155.09 67.85)"><tspan x="0" y="0">Hi-PHI </tspan><tspan class="cls-5" x="250.88" y="0">L</tspan><tspan x="290.63" y="0">ab</tspan></text>
  <line class="cls-4" x1="155.09" y1="106.32" x2="533.23" y2="106.32"/>
  <text class="cls-3" transform="translate(229.85 159.2)"><tspan x="0" y="0">The High-Performance </tspan><tspan x="-93.43" y="36">Human Interfacing Laboratory</tspan></text>
</svg>