<?xml version="1.0" encoding="UTF-8"?>
<svg id="Layer_1" xmlns="http://www.w3.org/2000/svg" version="1.1" viewBox="0 0 545.4 210.4">
  <!-- Generator: Adobe Illustrator 29.0.1, SVG Export Plug-In . SVG Version: 2.1.0 Build 192)  -->
  <defs>
    <style>
      .st0 {
        font-family: Seravek-Bold, Seravek;
        font-size: 80px;
        font-weight: 700;
      }

      .st0, .st1, .st2 {
        isolation: isolate;
      }

      .st0, .st1, .st3, .st4 {
        fill: #fff;
      }

      .st1 {
        font-family: ArialMT, Arial;
        font-size: 30px;
      }

      .st3 {
        stroke: #fff;
        stroke-miterlimit: 10;
        stroke-width: 2px;
      }
    </style>
  </defs>
  <g>
    <path class="st4" d="M39.4,144.5c2.1.8,4.1,1.7,6.2,2.5,0,0,.6.2.8.7.2.4,0,.9,0,.9-8,15.4-16,30.7-24,46.1-1,.9-2.4,1.1-3.5.6-1.4-.6-2.1-2.4-1.6-4,6.7-15.3,13.4-30.6,20-45.9,0-.1.3-.6.9-.9.5-.2,1,0,1.1,0h0Z"/>
    <path class="st4" d="M54.2,129.1c1.9.4,2.3-.4,2.3-.4,0,0,28.1-63.1,42.1-94.6,1.6.8,5.7,0,5.7-3.2h0s.2-9.6-.3-21c0-3.2-1.6-3.8-3.7-1.6-4.8,5.4-10.3,10.3-14.7,16-1.4,2.2.4,4.1,2.5,5.6l-41.4,94.7c-1.3,3.6,5.5,4.1,7.5,4.5h0Z"/>
    <path class="st4" d="M111,84.3c2.6-4.6-1.6-11.4-7.1-10.3-2.6-.9-6.5-1.8-9.1-2.5-2.2-1.5-3.6.4-3.8,2.6,1.5,4.2,5.1,8.1,8.2,11.2,1.7,2.2,4.6,4.3,7.5,3,9.5,12.7,9.1,29-2.8,39.6-13.9,8.2-35.3,6.8-50.3,3.1-33.2-10.6-41.4-30.1-24-53.3,8.2-11.9,18.6-11.8,30.9-12.5,3.9-.2,8.6,1.6,7.7-1.1.2-1.5-9-1.7-9.5-1.8h-1.8c-10.4.9-18.7.2-27.7,6.8-64.5,47.9,38.7,109.2,81.8,67.4,15.8-20.2,14.7-31.7,0-52.2h0ZM92.8,74.8c-.1,0-.4.3-.5.2-.1,0-.1-.3-.1-.7,0-.3,0-.4.1-.5.1,0,.3,0,.5.1.2.1.4.2.4.3,0,.2-.3.5-.4.5h0ZM103,84.5c-1.2,0-4.5-3-2.4-3.8.3-.4,3.4,2,3.3,2.4.3.6-.2,1.5-.9,1.4h0Z"/>
  </g>
  <g class="st2">
    <text class="st0" transform="translate(155.1 67.8)"><tspan x="0" y="0">Hi-PHI </tspan></text>
    <text class="st0" transform="translate(406 67.8)"><tspan x="0" y="0">L</tspan></text>
    <text class="st0" transform="translate(445.7 67.8)"><tspan x="0" y="0">ab</tspan></text>
  </g>
  <line class="st3" x1="155.1" y1="106.3" x2="533.2" y2="106.3"/>
  <g class="st2">
    <text class="st1" transform="translate(229.9 159.2)"><tspan x="0" y="0">The High-Performance </tspan></text>
    <text class="st1" transform="translate(136.4 195.2)"><tspan x="0" y="0">Human Interfacing Laboratory</tspan></text>
  </g>
</svg>