<?xml version="1.0" encoding="UTF-8"?>
<svg id="Layer_1" xmlns="http://www.w3.org/2000/svg" version="1.1" viewBox="0 0 272.2 78.9">
  <!-- Generator: Adobe Illustrator 29.0.1, SVG Export Plug-In . SVG Version: 2.1.0 Build 192)  -->
  <defs>
    <style>
      .st0, .st1 {
        isolation: isolate;
      }

      .st2, .st1 {
        fill: #fff;
      }

      .st1 {
        font-family: Seravek-Bold, Seravek;
        font-size: 40px;
        font-weight: 700;
      }
    </style>
  </defs>
  <g>
    <path class="st2" d="M21.9,57.8c.8.3,1.6.7,2.5,1,0,0,.2,0,.3.3,0,.2,0,.3,0,.4-3.2,6.1-6.4,12.3-9.6,18.5-.4.3-.9.4-1.4.2-.6-.3-.9-1-.6-1.6,2.7-6.1,5.3-12.3,8-18.4,0,0,.1-.2.4-.3.2,0,.4,0,.5,0h0Z"/>
    <path class="st2" d="M27.8,51.6c.8.2.9-.2.9-.2,0,0,11.2-25.3,16.9-37.9.6.3,2.3,0,2.3-1.3h0s0-3.9-.1-8.4c0-1.3-.7-1.5-1.5-.7-1.9,2.2-4.1,4.1-5.9,6.4-.5.9.2,1.6,1,2.2l-16.6,38c-.5,1.4,2.2,1.7,3,1.8h0Z"/>
    <path class="st2" d="M50.5,33.7c1-1.8-.7-4.6-2.8-4.1-1-.4-2.6-.7-3.7-1-.9-.6-1.5.1-1.5,1,.6,1.7,2,3.3,3.3,4.5.7.9,1.8,1.7,3,1.2,3.8,5.1,3.6,11.6-1.1,15.9-5.5,3.3-14.1,2.7-20.1,1.3-13.3-4.2-16.6-12.1-9.6-21.4,3.3-4.8,7.4-4.7,12.4-5,1.6,0,3.5.6,3.1-.5,0-.6-3.6-.7-3.8-.7h-.7c-4.1.4-7.5,0-11.1,2.7-25.9,19.2,15.5,43.7,32.8,27,6.3-8.1,5.9-12.7,0-20.9h0ZM43.3,29.8s-.2.1-.2,0c0,0,0-.1,0-.3s0-.2,0-.2c0,0,.1,0,.2,0s.2,0,.2.1c0,0-.1.2-.2.2h0ZM47.3,33.7c-.5,0-1.8-1.2-1-1.5.1-.2,1.4.8,1.3,1,.1.2,0,.6-.4.6Z"/>
  </g>
  <g class="st0">
    <text class="st1" transform="translate(79.3 53.6)"><tspan x="0" y="0">Hi-PHI </tspan></text>
    <text class="st1" transform="translate(204.8 53.6)"><tspan x="0" y="0">L</tspan></text>
    <text class="st1" transform="translate(224.7 53.6)"><tspan x="0" y="0">ab</tspan></text>
  </g>
</svg>