<?xml version="1.0" encoding="UTF-8"?>
<svg id="Layer_1" data-name="Layer 1" xmlns="http://www.w3.org/2000/svg" viewBox="0 0 272.25 78.94">
  <defs>
    <style>
      .cls-1 {
        font-family: Seravek-Bold, Seravek;
        font-size: 40px;
        font-weight: 700;
      }

      .cls-1, .cls-2 {
        fill: #161616;
      }

      .cls-3 {
        letter-spacing: 0em;
      }
    </style>
  </defs>
  <g>
    <path class="cls-2" d="M21.86,57.78c.83.34,1.65.67,2.48,1.01.03,0,.23.08.32.3.07.18.02.34,0,.38-3.2,6.15-6.41,12.31-9.61,18.46-.39.35-.94.45-1.38.25-.56-.26-.85-.96-.63-1.61,2.67-6.14,5.35-12.27,8.02-18.41.02-.04.11-.24.35-.34.21-.09.39-.04.45-.02Z"/>
    <path class="cls-2" d="M27.76,51.62c.76.16.92-.18.92-.18,0,0,11.25-25.28,16.87-37.91.62.33,2.29,0,2.27-1.27h0s.07-3.86-.11-8.42c.02-1.29-.65-1.54-1.49-.66-1.93,2.18-4.12,4.12-5.89,6.42-.55.89.16,1.65,1.01,2.24l-16.59,37.96c-.51,1.42,2.2,1.66,3,1.82Z"/>
    <path class="cls-2" d="M50.53,33.65c1.03-1.84-.65-4.58-2.83-4.14-1.03-.37-2.59-.7-3.65-1.01-.9-.59-1.46.15-1.54,1.02.58,1.7,2.02,3.25,3.29,4.5.69.89,1.85,1.71,2.99,1.2,3.8,5.09,3.64,11.63-1.11,15.88-5.55,3.28-14.15,2.72-20.15,1.26-13.28-4.23-16.6-12.07-9.61-21.37,3.28-4.77,7.44-4.74,12.38-5.01,1.57-.09,3.46.63,3.09-.45.09-.61-3.61-.68-3.82-.7h-.71c-4.15.35-7.5.08-11.11,2.73-25.86,19.21,15.51,43.75,32.77,27.01,6.34-8.09,5.91-12.71,0-20.9ZM43.26,29.82c-.05.04-.16.11-.22.08-.05-.03-.05-.12-.05-.26,0-.12,0-.18.05-.2.05-.03.11,0,.21.05.1.05.16.07.17.12.02.09-.11.18-.16.22ZM47.33,33.73c-.47.04-1.8-1.19-.95-1.54.11-.15,1.36.8,1.32.97.12.24-.08.6-.37.57Z"/>
  </g>
  <text class="cls-1" transform="translate(79.34 53.59)"><tspan x="0" y="0">Hi-PHI </tspan><tspan class="cls-3" x="125.44" y="0">L</tspan><tspan x="145.32" y="0">ab</tspan></text>
</svg>